# xmcd
#
# Track frame offsets: 
#        150
#        13182
#        25562
#        36637
#        51477
#        61987
#        72727
#        84632
#        96057
#        108315
#        122365
#        134200
#        148027
#        159934
#        174572
#        188957
#        202180
#        213452
#
# Disc length: 3008 seconds
#
# Revision: 1
# Processed by: cddbd v1.5.2PL0 Copyright (c) Steve Scherf et al.
# Submitted via: ExactAudioCopy v0.99pb5
#
DISCID=140bbe12
DTITLE=Xavier Cugat - El  Americano
DYEAR=1995
DGENRE=Swing
TTITLE0=El Americano
TTITLE1=Yo Quiero Un Mambo
TTITLE2=Strangers in the Dark
TTITLE3=Que Rico El Mambo
TTITLE4=Uuuh!
TTITLE5=Anything Can Happen-Mambo
TTITLE6=Mambo Ay Ay Ay
TTITLE7=Riviera Mambo
TTITLE8=Jamay
TTITLE9=Maracaibo
TTITLE10=Humpty Dumpty
TTITLE11=Mambo Mania
TTITLE12=Flute Nightmare
TTITLE13=Mambo Gitano
TTITLE14=Mambo O.K.
TTITLE15=El Marijuano
TTITLE16=Mondongo
TTITLE17=Mambo At The Waldorf
EXTD=
EXTT0=
EXTT1=
EXTT2=
EXTT3=
EXTT4=
EXTT5=
EXTT6=
EXTT7=
EXTT8=
EXTT9=
EXTT10=
EXTT11=
EXTT12=
EXTT13=
EXTT14=
EXTT15=
EXTT16=
EXTT17=
PLAYORDER=
